<svg width="48" height="48" viewBox="0 0 48 48" fill="none" xmlns="http://www.w3.org/2000/svg">
<path d="M4.84687 27.6656L7.81875 28.2562C8.55937 28.4062 9.31875 28.1719 9.85312 27.6375L11.2969 26.1937C12.3844 25.1062 14.2125 25.4062 14.8969 26.775L15.7687 28.5094C16.2188 29.4094 17.1375 29.9812 18.15 29.9812C19.575 29.9812 20.5969 28.6125 20.1844 27.2437L19.6219 25.3781C19.1906 23.9344 20.2687 22.4812 21.7781 22.4812H21.9937C23.25 22.4812 24.4219 21.8531 25.1156 20.8125L26.1187 19.3031C26.6437 18.5062 26.6156 17.4656 26.0437 16.7062L24.5344 14.6906C23.5688 13.4062 24.225 11.55 25.7906 11.1562L27.3844 10.7531C28.0875 10.575 28.6594 10.0781 28.9312 9.40312L30.4687 5.56875C28.4437 4.88438 26.2687 4.5 24 4.5C13.2281 4.5 4.5 13.2281 4.5 24C4.5 25.2563 4.62187 26.4844 4.84687 27.6656ZM43.0687 28.0969C42.7875 28.0688 42.5062 28.0875 42.225 28.1719L40.7437 28.5844C40.1156 28.7625 39.45 28.5 39.1031 27.9563L38.9156 27.6656C38.3531 26.7844 37.3781 26.25 36.3281 26.25C35.2781 26.25 34.3031 26.7844 33.7406 27.6656L33.1687 28.5562C33.0375 28.7625 32.85 28.9406 32.6344 29.0531L29.25 30.9469C27.5531 31.8937 26.8594 33.9844 27.6562 35.7562L28.1719 36.9187C28.9781 38.7187 31.05 39.5906 32.9062 38.8969L33.15 38.8031C34.0875 38.4562 35.1469 38.5969 35.9531 39.1875L36.0938 39.2906C39.5812 36.525 42.1031 32.5969 43.0687 28.0875V28.0969ZM48 24C48 37.2562 37.2562 48 24 48C10.7438 48 0 37.2562 0 24C0 10.7438 10.7438 0 24 0C37.2562 0 48 10.7438 48 24ZM13.5469 32.6344C13.35 33.4406 13.8375 34.2562 14.6344 34.4531L17.6344 35.2031C18.4406 35.4 19.2563 34.9125 19.4531 34.1156C19.65 33.3187 19.1625 32.4938 18.3656 32.2969L15.3656 31.5469C14.5594 31.35 13.7437 31.8375 13.5469 32.6344ZM22.1719 30.7594C21.975 31.5656 22.4625 32.3812 23.2594 32.5781C24.0562 32.775 24.8813 32.2875 25.0781 31.4906L25.8281 28.4906C26.025 27.6844 25.5375 26.8687 24.7406 26.6719C23.9437 26.475 23.1187 26.9625 22.9219 27.7594L22.1719 30.7594ZM32.175 10.6594C31.4344 10.2844 30.5344 10.5937 30.1594 11.3344L28.6594 14.3344C28.2844 15.075 28.5937 15.975 29.3344 16.35C30.075 16.725 30.975 16.4156 31.35 15.675L32.85 12.675C33.225 11.9344 32.9156 11.0344 32.175 10.6594Z" fill="#D0D6F9"/>
</svg>
